<svg xmlns="http://www.w3.org/2000/svg" viewBox="0 0 700 860" role="img" aria-labelledby="title">
  <title id="title">Ilustração provisória da experiência de chegada na clínica</title>
  <defs>
    <linearGradient id="bg2" x1="100%" y1="0%" x2="0%" y2="100%">
      <stop offset="0%" stop-color="#E8DED3"/>
      <stop offset="100%" stop-color="#F7F4EF"/>
    </linearGradient>
  </defs>
  <rect width="700" height="860" fill="url(#bg2)"/>
  <g fill="none" stroke="#302A27" stroke-opacity="0.32" stroke-width="2.5" stroke-linejoin="round" stroke-linecap="round">
    <path d="M220 560 v-70 a60 60 0 0 1 60 -60 h140 a60 60 0 0 1 60 60 v70 Z"/>
    <line x1="200" y1="560" x2="500" y2="560"/>
    <line x1="200" y1="560" x2="200" y2="600"/>
    <line x1="500" y1="560" x2="500" y2="600"/>
  </g>
  <circle cx="540" cy="360" r="8" fill="#B8A99B" fill-opacity="0.6"/>
  <path d="M540 368 C 540 400, 540 425, 540 450" fill="none" stroke="#B8A99B" stroke-opacity="0.6" stroke-width="2.5" stroke-linecap="round"/>
  <path d="M540 405 C 555 398, 568 386, 572 368 C 555 370, 543 382, 540 398" fill="none" stroke="#B8A99B" stroke-opacity="0.6" stroke-width="2.5" stroke-linecap="round"/>
</svg>
